<?xml version="1.0" encoding="UTF-8" standalone="no"?>
<!DOCTYPE svg PUBLIC "-//W3C//DTD SVG 1.1//EN"
 "http://www.w3.org/Graphics/SVG/1.1/DTD/svg11.dtd">
<!-- Generated by graphviz version 13.1.0 (20250701.0955)
 -->
<!-- Title: HMM_Final_Layout Pages: 1 -->
<svg width="682pt" height="210pt"
 viewBox="0.00 0.00 682.00 210.00" xmlns="http://www.w3.org/2000/svg" xmlns:xlink="http://www.w3.org/1999/xlink">
<g id="graph0" class="graph" transform="scale(1 1) rotate(0) translate(4 206.18)">
<title>HMM_Final_Layout</title>
<polygon fill="white" stroke="none" points="-4,4 -4,-206.18 678,-206.18 678,4 -4,4"/>
<g id="clust1" class="cluster">
<title>cluster_states</title>
</g>
<g id="clust3" class="cluster">
<title>cluster_alaska_obs</title>
</g>
<g id="clust4" class="cluster">
<title>cluster_Cali_obs</title>
</g>
<g id="clust5" class="cluster">
<title>cluster_texas_obs</title>
</g>
<!-- Alaska -->
<g id="node1" class="node">
<title>Alaska</title>
<ellipse fill="#ffec8b" stroke="black" cx="256" cy="-124.51" rx="36.51" ry="36.51"/>
<text xml:space="preserve" text-anchor="middle" x="256" y="-119.46" font-family="Times,serif" font-size="14.00">Alaska</text>
</g>
<!-- Cali -->
<g id="node2" class="node">
<title>Cali</title>
<ellipse fill="#ffec8b" stroke="black" cx="337" cy="-124.51" rx="26.27" ry="26.27"/>
<text xml:space="preserve" text-anchor="middle" x="337" y="-119.46" font-family="Times,serif" font-size="14.00">Cali</text>
</g>
<!-- Alaska&#45;&gt;Cali -->
<g id="edge2" class="edge">
<title>Alaska:e&#45;&gt;Cali:w</title>
<path fill="none" stroke="gold" stroke-width="1.5" d="M292.51,-124.51C295.42,-124.51 297.54,-124.51 299.45,-124.51"/>
<polygon fill="gold" stroke="gold" stroke-width="1.5" points="298.46,-128.01 308.46,-124.51 298.46,-121.01 298.46,-128.01"/>
</g>
<!-- Texas -->
<g id="node3" class="node">
<title>Texas</title>
<ellipse fill="#ffec8b" stroke="black" cx="414" cy="-124.51" rx="32.93" ry="32.93"/>
<text xml:space="preserve" text-anchor="middle" x="414" y="-119.46" font-family="Times,serif" font-size="14.00">Texas</text>
</g>
<!-- Alaska&#45;&gt;Texas -->
<g id="edge6" class="edge">
<title>Alaska:n&#45;&gt;Texas:nw</title>
<path fill="none" stroke="blue" stroke-width="0.75" d="M256,-162.36C256,-211.16 319.54,-209.22 363,-187.02 377.92,-179.39 377.07,-168.99 383.84,-157.55"/>
<polygon fill="blue" stroke="blue" stroke-width="0.75" points="386.38,-159.99 389.76,-149.95 380.85,-155.69 386.38,-159.99"/>
</g>
<!-- a_snow -->
<g id="node4" class="node">
<title>a_snow</title>
<polygon fill="lightblue" stroke="black" points="70,-52 16,-52 16,-16 70,-16 70,-52"/>
<text xml:space="preserve" text-anchor="middle" x="43" y="-28.95" font-family="Times,serif" font-size="14.00">snow</text>
</g>
<!-- Alaska&#45;&gt;a_snow -->
<g id="edge10" class="edge">
<title>Alaska&#45;&gt;a_snow</title>
<path fill="none" stroke="red" stroke-width="2.5" d="M220.61,-113.81C184.05,-103.1 125.87,-84.15 79,-60 78.59,-59.79 78.19,-59.58 77.78,-59.36"/>
<polygon fill="red" stroke="red" stroke-width="2.5" points="79.69,-56.42 69.31,-54.28 76.09,-62.43 79.69,-56.42"/>
</g>
<!-- a_oil_rig -->
<g id="node5" class="node">
<title>a_oil_rig</title>
<polygon fill="lightblue" stroke="black" points="142,-52 88,-52 88,-16 142,-16 142,-52"/>
<text xml:space="preserve" text-anchor="middle" x="115" y="-28.95" font-family="Times,serif" font-size="14.00">oil rig</text>
</g>
<!-- Alaska&#45;&gt;a_oil_rig -->
<g id="edge11" class="edge">
<title>Alaska&#45;&gt;a_oil_rig</title>
<path fill="none" stroke="orange" stroke-width="2" d="M224.9,-105.4C203.84,-92.96 175.49,-75.88 151,-60 150.77,-59.85 150.54,-59.7 150.3,-59.55"/>
<polygon fill="orange" stroke="orange" stroke-width="2" points="152.42,-56.75 142.17,-54.1 148.53,-62.57 152.42,-56.75"/>
</g>
<!-- a_beach -->
<g id="node6" class="node">
<title>a_beach</title>
<polygon fill="lightblue" stroke="black" points="214,-52 160,-52 160,-16 214,-16 214,-52"/>
<text xml:space="preserve" text-anchor="middle" x="187" y="-28.95" font-family="Times,serif" font-size="14.00">beach</text>
</g>
<!-- Alaska&#45;&gt;a_beach -->
<g id="edge12" class="edge">
<title>Alaska&#45;&gt;a_beach</title>
<path fill="none" stroke="cornflowerblue" d="M233.79,-95.02C225.32,-84.15 215.71,-71.83 207.41,-61.19"/>
<polygon fill="cornflowerblue" stroke="cornflowerblue" points="210.36,-59.27 201.45,-53.54 204.84,-63.58 210.36,-59.27"/>
</g>
<!-- Cali&#45;&gt;Alaska -->
<g id="edge5" class="edge">
<title>Cali:n&#45;&gt;Alaska:ne</title>
<path fill="none" stroke="cornflowerblue" d="M337,-152.03C337,-209.32 308.61,-185.42 288.01,-159.67"/>
<polygon fill="cornflowerblue" stroke="cornflowerblue" points="290.87,-157.65 282.03,-151.82 285.3,-161.9 290.87,-157.65"/>
</g>
<!-- Cali&#45;&gt;Texas -->
<g id="edge4" class="edge">
<title>Cali:e&#45;&gt;Texas:w</title>
<path fill="none" stroke="red" stroke-width="2.5" d="M363.27,-124.51C365.99,-124.51 368.01,-124.51 369.81,-124.51"/>
<polygon fill="red" stroke="red" stroke-width="2.5" points="367.29,-128.01 377.29,-124.51 367.29,-121.01 367.29,-128.01"/>
</g>
<!-- c_snow -->
<g id="node7" class="node">
<title>c_snow</title>
<polygon fill="lightblue" stroke="black" points="292,-52 238,-52 238,-16 292,-16 292,-52"/>
<text xml:space="preserve" text-anchor="middle" x="265" y="-28.95" font-family="Times,serif" font-size="14.00">snow</text>
</g>
<!-- Cali&#45;&gt;c_snow -->
<g id="edge7" class="edge">
<title>Cali&#45;&gt;c_snow</title>
<path fill="none" stroke="gold" stroke-width="1.5" d="M321.01,-103.55C315.06,-96.14 308.24,-87.67 302,-80 297.14,-74.03 291.9,-67.63 286.94,-61.58"/>
<polygon fill="gold" stroke="gold" stroke-width="1.5" points="289.95,-59.74 280.89,-54.24 284.55,-64.19 289.95,-59.74"/>
</g>
<!-- c_oil_rig -->
<g id="node8" class="node">
<title>c_oil_rig</title>
<polygon fill="lightblue" stroke="black" points="364,-52 310,-52 310,-16 364,-16 364,-52"/>
<text xml:space="preserve" text-anchor="middle" x="337" y="-28.95" font-family="Times,serif" font-size="14.00">oil rig</text>
</g>
<!-- Cali&#45;&gt;c_oil_rig -->
<g id="edge8" class="edge">
<title>Cali&#45;&gt;c_oil_rig</title>
<path fill="none" stroke="cornflowerblue" d="M337,-97.91C337,-87.19 337,-74.67 337,-63.65"/>
<polygon fill="cornflowerblue" stroke="cornflowerblue" points="340.5,-63.93 337,-53.93 333.5,-63.93 340.5,-63.93"/>
</g>
<!-- c_beach -->
<g id="node9" class="node">
<title>c_beach</title>
<polygon fill="lightblue" stroke="black" points="436,-52 382,-52 382,-16 436,-16 436,-52"/>
<text xml:space="preserve" text-anchor="middle" x="409" y="-28.95" font-family="Times,serif" font-size="14.00">beach</text>
</g>
<!-- Cali&#45;&gt;c_beach -->
<g id="edge9" class="edge">
<title>Cali&#45;&gt;c_beach</title>
<path fill="none" stroke="red" stroke-width="2.5" d="M352.99,-103.55C358.94,-96.14 365.76,-87.67 372,-80 376.51,-74.45 381.35,-68.54 386,-62.88"/>
<polygon fill="red" stroke="red" stroke-width="2.5" points="388.49,-65.36 392.14,-55.41 383.09,-60.91 388.49,-65.36"/>
</g>
<!-- Texas&#45;&gt;Alaska -->
<g id="edge3" class="edge">
<title>Texas:n&#45;&gt;Alaska:ne</title>
<path fill="none" stroke="blue" stroke-width="0.75" d="M414,-158.74C414,-206.22 353.89,-207.37 311,-187.02 296.38,-180.08 295.83,-170.84 288.95,-160.1"/>
<polygon fill="blue" stroke="blue" stroke-width="0.75" points="291.82,-158.09 282.82,-152.5 286.37,-162.48 291.82,-158.09"/>
</g>
<!-- Texas&#45;&gt;Cali -->
<g id="edge1" class="edge">
<title>Texas:nw&#45;&gt;Cali:ne</title>
<path fill="none" stroke="gold" stroke-width="1.5" d="M389.45,-148.06C377.98,-159.53 368.64,-158.63 361.56,-152.17"/>
<polygon fill="gold" stroke="gold" stroke-width="1.5" points="365.02,-150.92 356.17,-145.1 359.46,-155.17 365.02,-150.92"/>
</g>
<!-- t_snow -->
<g id="node10" class="node">
<title>t_snow</title>
<polygon fill="lightblue" stroke="black" points="514,-52 460,-52 460,-16 514,-16 514,-52"/>
<text xml:space="preserve" text-anchor="middle" x="487" y="-28.95" font-family="Times,serif" font-size="14.00">snow</text>
</g>
<!-- Texas&#45;&gt;t_snow -->
<g id="edge13" class="edge">
<title>Texas&#45;&gt;t_snow</title>
<path fill="none" stroke="cornflowerblue" d="M434.72,-98.38C444.4,-86.65 455.9,-72.7 465.65,-60.88"/>
<polygon fill="cornflowerblue" stroke="cornflowerblue" points="468.08,-63.44 471.75,-53.5 462.68,-58.98 468.08,-63.44"/>
</g>
<!-- t_oil_rig -->
<g id="node11" class="node">
<title>t_oil_rig</title>
<polygon fill="lightblue" stroke="black" points="586,-52 532,-52 532,-16 586,-16 586,-52"/>
<text xml:space="preserve" text-anchor="middle" x="559" y="-28.95" font-family="Times,serif" font-size="14.00">oil rig</text>
</g>
<!-- Texas&#45;&gt;t_oil_rig -->
<g id="edge14" class="edge">
<title>Texas&#45;&gt;t_oil_rig</title>
<path fill="none" stroke="red" stroke-width="2.5" d="M442.6,-107.67C462.55,-96.44 489.93,-80.68 522.97,-59.77"/>
<polygon fill="red" stroke="red" stroke-width="2.5" points="524.65,-62.84 531.2,-54.51 520.89,-56.95 524.65,-62.84"/>
</g>
<!-- t_beach -->
<g id="node12" class="node">
<title>t_beach</title>
<polygon fill="lightblue" stroke="black" points="658,-52 604,-52 604,-16 658,-16 658,-52"/>
<text xml:space="preserve" text-anchor="middle" x="631" y="-28.95" font-family="Times,serif" font-size="14.00">beach</text>
</g>
<!-- Texas&#45;&gt;t_beach -->
<g id="edge15" class="edge">
<title>Texas&#45;&gt;t_beach</title>
<path fill="none" stroke="blue" stroke-width="0.5" d="M445.8,-115.18C482.8,-104.85 545.18,-85.45 595,-60 596.36,-59.31 597.72,-58.57 599.08,-57.8"/>
<polygon fill="blue" stroke="blue" stroke-width="0.5" points="600.61,-60.97 607.3,-52.75 596.95,-55 600.61,-60.97"/>
</g>
</g>
</svg>
